# Blender v2.79 (sub 0) OBJ File: ''
# www.blender.org
mtllib bladeofwoe.mtl
o BladeofWoe:1
v -3.707870 -4.539242 -0.630049
v -4.789609 -5.160389 -0.658525
v -4.770152 -5.588060 -0.233046
v -3.370527 -4.713713 -0.463632
v -6.989681 -2.726314 -1.380888
v -7.295198 -2.535158 -1.380888
v -7.194304 -2.623101 -1.007981
v -0.129951 -3.792011 -0.954442
v -1.799586 -3.741049 -0.572386
v -1.672311 -4.803267 -0.664517
v -0.119615 -4.496527 -0.961335
v -0.672822 -5.219791 -0.986913
v -2.430400 -5.829470 -0.879254
v -6.013218 -4.586851 -0.669092
v -5.899439 -4.270645 -1.380888
v -6.056943 -5.406029 -1.380887
v -4.745798 -6.519810 -0.897294
v -6.717411 -3.545055 -0.876420
v -6.527092 -3.498544 -1.380888
v -6.998572 -4.085480 -1.380888
v -7.364392 -2.798084 -1.380888
v -4.640266 -6.730680 -1.380887
v -2.173334 -6.088921 -1.380887
v -0.493000 -5.296072 -1.380888
v 0.143037 -4.511473 -1.380888
v 0.086751 -3.797165 -1.380888
v -4.809066 -4.732590 -1.380888
v -4.083998 -4.559021 -1.380888
v -3.295261 6.608088 -0.859543
v -2.643373 3.229500 -0.860605
v -1.256268 3.427004 -0.482093
v -1.623513 6.959528 -0.457515
v 0.036453 7.308925 -0.890469
v 0.064980 3.705169 -0.890468
v 0.284197 3.705169 -1.380891
v 0.203192 7.308926 -1.380892
v -1.342686 -2.246197 -0.506349
v -2.864938 -2.247102 -0.850134
v 0.005261 -2.270941 -0.880158
v 0.254749 -2.270941 -1.380889
v -3.185619 -2.270940 -1.380889
v -2.949643 3.228185 -1.380890
v -3.874693 6.732825 -1.380892
v -1.799586 -3.741049 -0.572386
v -0.129951 -3.792011 -0.954442
v 0.086751 -3.797165 -1.380888
v -3.562843 -3.783764 -1.380888
v -3.233401 -3.704776 -0.775784
v -3.730111 15.944415 -0.018495
v -4.339660 18.149385 -0.090456
v -7.292763 18.449554 -1.380895
v -7.450546 17.108751 -1.380895
v -2.525767 11.144366 -0.605628
v -1.376967 11.242812 -0.840614
v -4.048079 28.831200 -1.380914
v -5.520099 30.799744 -0.595681
v -5.319536 24.866478 -0.400664
v -3.425216 22.389988 -1.380913
v -4.734538 12.123986 -1.380898
v -6.579871 15.865040 -1.380894
v -5.486030 7.651898 -0.403525
v -3.644552 9.330536 -0.460307
v -4.881820 9.547141 -1.380892
v -5.763576 8.076002 -1.380892
v 0.019574 8.635102 -0.440605
v -2.063117 7.975300 -0.346762
v -3.947304 6.964442 -0.907735
v -4.309212 6.833913 -1.380892
v -3.874693 6.732825 -1.380892
v -5.239714 7.148226 -0.349019
v -3.295261 6.608088 -0.859543
v -4.936708 21.188435 -0.214903
v -7.722493 25.067106 -1.380900
v -7.585327 21.842117 -1.380897
v -4.356599 43.804321 -1.380904
v -4.026987 43.004906 -1.142650
v -3.122036 46.002335 -1.380905
v -6.326525 6.142025 -0.591361
v -6.783659 4.869440 -0.967816
v -6.891027 4.392043 -1.380891
v -5.806991 6.066526 -1.380891
v -6.695972 6.303083 -1.380891
v -4.413431 10.936007 -1.380899
v -1.623513 6.959528 -0.457515
v -1.142945 7.550276 -0.569362
v -2.725259 7.239167 -0.613559
v -4.904570 6.726932 -1.380891
v 0.269037 8.020594 -1.380892
v 0.063642 7.987734 -1.009705
v 0.036453 7.308925 -0.890469
v 0.203192 7.308926 -1.380892
v -3.709488 42.157040 -1.380903
v -5.313607 35.048744 -0.732686
v -4.793032 39.068897 -0.896134
v -6.005430 38.884701 -1.380902
v -6.922107 34.516052 -1.380903
v -4.041806 39.146080 -1.380902
v -4.214323 34.825245 -1.380905
v -1.512997 14.240434 -1.380912
v -0.564495 11.313982 -1.380914
v -7.385729 31.325150 -1.380905
v 0.910994 8.858924 -1.380894
v -4.936708 21.188435 -0.214903
v -7.585327 21.842117 -1.380897
v -3.233401 -3.704776 -0.775784
v -3.562843 -3.783764 -1.380888
v -2.775688 18.597044 -1.380912
v -2.775688 18.597044 -1.380912
v -4.770152 -5.588060 -2.528729
v -4.789609 -5.160389 -2.103250
v -3.707870 -4.539244 -2.131727
v -3.370527 -4.713713 -2.298143
v -7.194304 -2.623101 -1.753795
v -0.129951 -3.792011 -1.807334
v -0.119615 -4.496527 -1.800440
v -1.672311 -4.803268 -2.097258
v -1.799585 -3.741050 -2.189390
v -0.672822 -5.219791 -1.774862
v -2.430400 -5.829470 -1.882521
v -6.013218 -4.586853 -2.092684
v -4.745798 -6.519810 -1.864480
v -6.717411 -3.545055 -1.885356
v -3.295261 6.608088 -1.902240
v -1.623513 6.959528 -2.304268
v -1.256268 3.427003 -2.279688
v -2.643373 3.229500 -1.901175
v 0.036453 7.308925 -1.871315
v 0.064980 3.705169 -1.871313
v -1.342686 -2.246198 -2.255429
v -2.864938 -2.247102 -1.911643
v 0.005261 -2.270941 -1.881620
v -1.799585 -3.741050 -2.189390
v -0.129951 -3.792011 -1.807334
v -3.233401 -3.704776 -1.985992
v -3.730111 15.944414 -2.743344
v -7.450546 17.108751 -1.380895
v -7.292763 18.449554 -1.380895
v -4.339659 18.149385 -2.671385
v -2.525767 11.144366 -2.156203
v -1.376967 11.242812 -1.921220
v -4.048079 28.831200 -1.380914
v -3.425216 22.389988 -1.380913
v -5.319536 24.866478 -2.361180
v -5.520099 30.799744 -2.166161
v -4.734538 12.123986 -1.380898
v -6.579871 15.865040 -1.380894
v -5.486030 7.651898 -2.358258
v -5.763576 8.076002 -1.380892
v -4.881820 9.547141 -1.380892
v -3.644552 9.330535 -2.301484
v 0.019574 8.635102 -2.321187
v -2.063117 7.975299 -2.415023
v -3.947304 6.964442 -1.854048
v -3.874693 6.732825 -1.380892
v -4.309212 6.833913 -1.380892
v -5.239714 7.148226 -2.412764
v -3.295261 6.608088 -1.902240
v -2.775688 18.597044 -1.380912
v -4.936708 21.188435 -2.546939
v -7.585327 21.842117 -1.380897
v -7.722493 25.067106 -1.380900
v -4.356599 43.804321 -1.380904
v -3.122036 46.002335 -1.380905
v -4.026987 43.004906 -1.619157
v -6.891027 4.392043 -1.380891
v -6.783659 4.869440 -1.793966
v -6.326525 6.142025 -2.170421
v -5.806991 6.066526 -1.380891
v -6.695972 6.303083 -1.380891
v -4.413431 10.936007 -1.380899
v -1.623513 6.959528 -2.304268
v -2.725260 7.239167 -2.148224
v -1.142945 7.550276 -2.192422
v -4.904570 6.726932 -1.380891
v 0.269037 8.020594 -1.380892
v 0.203192 7.308926 -1.380892
v 0.036453 7.308925 -1.871315
v 0.063642 7.987734 -1.752080
v -3.709488 42.157040 -1.380903
v -5.313607 35.048744 -2.029129
v -6.922107 34.516052 -1.380903
v -6.005430 38.884701 -1.380902
v -4.793032 39.068897 -1.865671
v -4.041806 39.146080 -1.380902
v -4.214323 34.825245 -1.380905
v -1.512997 14.240434 -1.380912
v -0.564495 11.313982 -1.380914
v -7.385729 31.325150 -1.380905
v 0.910994 8.858924 -1.380894
v -7.585327 21.842117 -1.380897
v -4.936708 21.188435 -2.546939
v -3.233401 -3.704776 -1.985992
v -2.775688 18.597044 -1.380912
vt 0.188721 0.495117
vt 0.132935 0.524658
vt 0.115906 0.504639
vt 0.187256 0.471680
vt 0.096130 0.659424
vt 0.082947 0.666992
vt 0.084900 0.659180
vt 0.303467 0.348145
vt 0.267578 0.425781
vt 0.225830 0.397949
vt 0.273682 0.335449
vt 0.231567 0.345215
vt 0.164185 0.404297
vt 0.096008 0.573975
vt 0.123474 0.594971
vt 0.059570 0.546875
vt 0.077942 0.473145
vt 0.087830 0.626953
vt 0.107422 0.631348
vt 0.059753 0.616211
vt 0.073303 0.660645
vt 0.061768 0.457031
vt 0.151733 0.376953
vt 0.227539 0.325195
vt 0.279053 0.313477
vt 0.311768 0.326660
vt 0.157104 0.554688
vt 0.187500 0.535645
vt 0.052246 0.062988
vt 0.213501 0.084961
vt 0.208252 0.163574
vt 0.039856 0.150391
vt 0.028214 0.236816
vt 0.199707 0.236816
vt 0.200806 0.262207
vt 0.029465 0.261230
vt 0.474365 0.149414
vt 0.470215 0.069336
vt 0.480225 0.219727
vt 0.483154 0.246094
vt 0.467529 0.040039
vt 0.212891 0.056641
vt 0.045624 0.026855
vt 0.533203 0.125000
vt 0.540527 0.210449
vt 0.543945 0.232910
vt 0.525879 0.023926
vt 0.530273 0.055176
vt 0.556152 0.829834
vt 0.467529 0.865967
vt 0.372070 0.752197
vt 0.416504 0.714355
vt 0.750977 0.740234
vt 0.781250 0.783813
vt 0.616211 0.472168
vt 0.497559 0.461426
vt 0.707520 0.298340
vt 0.858887 0.315918
vt 0.656738 0.680176
vt 0.481201 0.708740
vt 0.790527 0.547119
vt 0.784180 0.652832
vt 0.730469 0.615479
vt 0.744141 0.547363
vt 0.901367 0.755005
vt 0.872559 0.669434
vt 0.865234 0.568115
vt 0.872559 0.542725
vt 0.884277 0.553955
vt 0.813965 0.539307
vt 0.893066 0.582275
vt 0.843750 0.202637
vt 0.618652 0.211426
vt 0.729492 0.119629
vt 0.083679 0.872070
vt 0.122070 0.860718
vt 0.044739 0.977600
vt 0.804688 0.478027
vt 0.813965 0.421875
vt 0.816895 0.394043
vt 0.852539 0.479492
vt 0.761719 0.463379
vt 0.702148 0.663086
vt 0.920898 0.654541
vt 0.912598 0.690430
vt 0.883789 0.621582
vt 0.861816 0.523193
vt 0.946777 0.762451
vt 0.935547 0.747559
vt 0.955566 0.725342
vt 0.969238 0.742432
vt 0.162476 0.850098
vt 0.357422 0.589111
vt 0.234619 0.721436
vt 0.201172 0.672363
vt 0.322021 0.513672
vt 0.257812 0.755005
vt 0.402588 0.630371
vt 0.685547 0.887756
vt 0.805664 0.827148
vt 0.416748 0.404785
vt 0.924316 0.803711
vt 0.344971 0.921326
vt 0.245117 0.827393
vt 0.236450 0.491699
vt 0.232178 0.525146
vt 0.500488 0.967133
vt 0.975098 0.243652
vt 0.115906 0.504639
vt 0.132935 0.524658
vt 0.188721 0.495117
vt 0.187256 0.471680
vt 0.084900 0.659180
vt 0.303467 0.348145
vt 0.273682 0.335449
vt 0.225830 0.397949
vt 0.267578 0.425781
vt 0.231567 0.345215
vt 0.164185 0.404297
vt 0.096008 0.573975
vt 0.077942 0.473145
vt 0.087830 0.626953
vt 0.052246 0.062988
vt 0.039856 0.150391
vt 0.208252 0.163574
vt 0.213501 0.084961
vt 0.028214 0.236816
vt 0.199707 0.236816
vt 0.474365 0.149414
vt 0.470215 0.069336
vt 0.480225 0.219727
vt 0.533203 0.125000
vt 0.540527 0.210449
vt 0.530273 0.055176
vt 0.556152 0.829834
vt 0.416504 0.714355
vt 0.372070 0.752197
vt 0.467529 0.865967
vt 0.750977 0.740234
vt 0.781250 0.783813
vt 0.616211 0.472168
vt 0.858887 0.315918
vt 0.707520 0.298340
vt 0.497559 0.461426
vt 0.656738 0.680176
vt 0.481201 0.708740
vt 0.790527 0.547119
vt 0.744141 0.547363
vt 0.730469 0.615479
vt 0.784180 0.652832
vt 0.901367 0.755005
vt 0.872559 0.669434
vt 0.865234 0.568115
vt 0.884277 0.553955
vt 0.872559 0.542725
vt 0.813965 0.539307
vt 0.893066 0.582275
vt 0.975098 0.243652
vt 0.843750 0.202637
vt 0.729492 0.119629
vt 0.618652 0.211426
vt 0.083679 0.872070
vt 0.044739 0.977600
vt 0.122070 0.860718
vt 0.816895 0.394043
vt 0.813965 0.421875
vt 0.804688 0.478027
vt 0.852539 0.479492
vt 0.761719 0.463379
vt 0.702148 0.663086
vt 0.920898 0.654541
vt 0.883789 0.621582
vt 0.912598 0.690430
vt 0.861816 0.523193
vt 0.946777 0.762451
vt 0.969238 0.742432
vt 0.955566 0.725342
vt 0.935547 0.747559
vt 0.162476 0.850098
vt 0.357422 0.589111
vt 0.322021 0.513672
vt 0.201172 0.672363
vt 0.234619 0.721436
vt 0.257812 0.755005
vt 0.402588 0.630371
vt 0.685547 0.887756
vt 0.805664 0.827148
vt 0.416748 0.404785
vt 0.924316 0.803711
vt 0.245117 0.827393
vt 0.344971 0.921326
vt 0.236450 0.491699
vt 0.500488 0.967133
vn -0.4365 0.5702 0.6960
vn -0.0510 0.7733 0.6320
vn -0.2143 -0.1130 0.9702
vn -0.0117 0.1130 0.9935
vn 0.7640 0.6452 0.0040
vn -0.4362 0.8999 0.0039
vn -0.1610 0.5928 0.7891
vn 0.6008 -0.0589 0.7972
vn 0.0509 -0.0039 0.9987
vn 0.1597 -0.1831 0.9700
vn 0.5990 -0.2153 0.7713
vn 0.4253 -0.5658 0.7063
vn 0.2147 -0.5816 0.7846
vn -0.2382 0.2070 0.9489
vn 0.6328 0.7743 0.0039
vn -0.7977 -0.6031 0.0039
vn -0.2698 -0.7782 0.5670
vn 0.0665 0.1837 0.9807
vn 0.8190 0.5737 0.0039
vn -0.8690 -0.4949 0.0039
vn -0.9972 -0.0743 0.0039
vn -0.1751 -0.9845 0.0039
vn 0.3256 -0.9455 0.0039
vn 0.6375 -0.7704 0.0039
vn 0.9605 -0.2784 0.0039
vn 0.9990 -0.0435 0.0040
vn -0.0119 0.9999 0.0039
vn -0.4923 0.8704 0.0039
vn -0.4963 -0.0899 0.8635
vn -0.5795 -0.0583 0.8129
vn 0.0274 -0.0196 0.9994
vn 0.0196 -0.0118 0.9997
vn 0.7030 0.0196 0.7109
vn 0.6626 -0.0039 0.7489
vn 1.0000 -0.0039 0.0039
vn 0.9998 0.0198 0.0040
vn 0.0431 -0.0352 0.9985
vn -0.5645 0.0818 0.8214
vn 0.6317 -0.0589 0.7730
vn 0.9982 -0.0592 0.0039
vn -0.9895 0.1447 0.0039
vn -0.9936 -0.1130 0.0039
vn -0.9784 -0.2066 0.0039
vn 0.9990 -0.0434 0.0040
vn -0.8967 0.4425 0.0039
vn -0.5344 0.3159 0.7840
vn 0.1053 0.0039 0.9944
vn 0.0820 0.0430 0.9957
vn -0.3854 -0.0195 0.9225
vn -0.3620 -0.0584 0.9303
vn -0.0743 0.0351 0.9966
vn 0.3722 0.1685 0.9127
vn 0.5038 0.0351 0.8631
vn 0.0509 0.0276 0.9983
vn 0.0665 0.0352 0.9972
vn 0.5447 0.0823 0.8346
vn -0.4004 -0.1827 0.8980
vn -0.4083 -0.2605 0.8749
vn -0.4965 0.2932 0.8170
vn -0.2308 0.2073 0.9506
vn -0.5654 0.3704 0.7370
vn -0.7936 0.4418 0.4183
vn 0.4816 -0.0744 0.8732
vn 0.0273 -0.1599 0.9868
vn -0.0977 -0.8013 0.5902
vn -0.0273 -0.9316 0.3625
vn -0.3322 -0.8637 0.3791
vn 0.0821 -0.3869 0.9185
vn -0.2764 -0.3776 0.8837
vn 0.0742 0.0430 0.9963
vn -0.3854 0.0039 0.9227
vn -0.4107 -0.0274 0.9114
vn -0.3082 0.1444 0.9403
vn 0.0509 0.0352 0.9981
vn 0.0196 0.0665 0.9976
vn -0.2607 -0.2296 0.9377
vn -0.1753 -0.5179 0.8373
vn -0.1678 -0.5423 0.8232
vn 0.6118 -0.6352 0.4715
vn -0.8627 0.2850 0.4177
vn -0.4344 0.0900 0.8962
vn -0.0272 0.1206 0.9923
vn 0.1838 -0.1368 0.9734
vn -0.1597 -0.1831 0.9700
vn 0.3394 -0.8309 0.4408
vn 0.8449 -0.3498 0.4048
vn 0.6869 -0.2787 0.6712
vn 0.6148 0.0509 0.7871
vn 0.9408 -0.0905 0.3267
vn 0.4881 -0.0586 0.8708
vn 0.0509 0.0274 0.9983
vn 0.0742 0.0352 0.9966
vn -0.3864 0.0976 0.9172
vn -0.3876 0.0587 0.9200
vn 0.5367 -0.0509 0.8422
vn 0.4982 -0.0118 0.8670
vn 0.6154 0.1921 0.7644
vn 0.5303 0.2396 0.8132
vn -0.3785 0.0351 0.9249
vn 0.7185 0.0275 0.6950
vn -0.8968 0.4425 0.0039
vn 0.6103 0.1614 0.7756
vn 0.6102 0.1614 0.7756
vn -0.2159 -0.1139 -0.9697
vn -0.0513 0.7771 -0.6272
vn -0.4388 0.5733 -0.6919
vn -0.0118 0.1139 -0.9934
vn -0.1620 0.5965 -0.7861
vn 0.6046 -0.0592 -0.7943
vn 0.6026 -0.2166 -0.7681
vn 0.1609 -0.1845 -0.9696
vn 0.0513 -0.0040 -0.9987
vn 0.4277 -0.5690 -0.7024
vn 0.2160 -0.5852 -0.7816
vn -0.2400 0.2085 -0.9481
vn -0.2710 -0.7817 -0.5617
vn 0.0669 0.1851 -0.9804
vn -0.4996 -0.0905 -0.8615
vn 0.0198 -0.0119 -0.9997
vn 0.0277 -0.0197 -0.9994
vn -0.5832 -0.0587 -0.8102
vn 0.7070 0.0197 -0.7070
vn 0.6665 -0.0039 -0.7455
vn 0.0434 -0.0355 -0.9984
vn -0.5681 0.0823 -0.8188
vn 0.6356 -0.0592 -0.7698
vn 0.0513 -0.0039 -0.9987
vn 0.6046 -0.0593 -0.7943
vn -0.5376 0.3179 -0.7810
vn 0.1381 0.0118 -0.9903
vn -0.3647 -0.0588 -0.9293
vn -0.3881 -0.0196 -0.9214
vn 0.0826 0.0433 -0.9956
vn -0.0748 0.0354 -0.9966
vn 0.3833 0.1857 -0.9048
vn 0.5072 0.0354 -0.8611
vn 0.5482 0.0828 -0.8322
vn 0.0670 0.0355 -0.9971
vn 0.0513 0.0277 -0.9983
vn -0.4032 -0.1840 -0.8964
vn -0.4111 -0.2623 -0.8730
vn -0.4997 0.2951 -0.8144
vn -0.7962 0.4432 -0.4118
vn -0.5686 0.3726 -0.7334
vn -0.2325 0.2089 -0.9499
vn 0.4850 -0.0749 -0.8713
vn 0.0275 -0.1611 -0.9865
vn -0.0982 -0.8050 -0.5851
vn -0.3332 -0.8662 -0.3723
vn -0.0274 -0.9342 -0.3557
vn 0.0826 -0.3897 -0.9172
vn -0.2783 -0.3802 -0.8820
vn 0.6140 0.1624 -0.7724
vn 0.0748 0.0433 -0.9963
vn -0.4136 -0.0276 -0.9100
vn -0.3882 0.0039 -0.9216
vn -0.3105 0.1455 -0.9394
vn 0.0197 0.0670 -0.9976
vn 0.0513 0.0355 -0.9981
vn -0.1688 -0.5458 -0.8207
vn -0.1764 -0.5213 -0.8349
vn -0.2626 -0.2313 -0.9368
vn 0.6140 -0.6375 -0.4654
vn -0.8655 0.2859 -0.4112
vn -0.4374 0.0907 -0.8947
vn -0.0274 0.1216 -0.9922
vn -0.1610 -0.1845 -0.9696
vn 0.1852 -0.1379 -0.9730
vn 0.3406 -0.8338 -0.4345
vn 0.8476 -0.3509 -0.3982
vn 0.9432 -0.0908 -0.3197
vn 0.6186 0.0512 -0.7840
vn 0.6905 -0.2802 -0.6668
vn 0.4915 -0.0590 -0.8689
vn 0.0513 0.0276 -0.9983
vn -0.3904 0.0591 -0.9188
vn -0.3892 0.0983 -0.9159
vn 0.0748 0.0355 -0.9966
vn 0.5402 -0.0513 -0.8399
vn 0.5016 -0.0119 -0.8650
vn 0.5869 0.1694 -0.7917
vn 0.5179 0.2491 -0.8184
vn -0.3813 0.0354 -0.9238
vn 0.7225 0.0276 -0.6909
usemtl Material.00008b
s 1
f 1/1/1 2/2/2 3/3/3
f 3/3/3 4/4/4 1/1/1
f 5/5/5 6/6/6 7/7/7
f 8/8/8 9/9/9 10/10/10
f 10/10/10 11/11/11 8/8/8
f 12/12/12 10/10/10 13/13/13
f 13/13/13 10/10/10 4/4/4
f 14/14/14 3/3/3 2/2/2
f 2/2/2 15/15/15 14/14/14
f 3/3/3 14/14/14 16/16/16
f 16/16/16 17/17/17 3/3/3
f 18/18/18 14/14/14 15/15/15
f 15/15/15 19/19/19 18/18/18
f 18/18/18 20/20/20 16/16/16
f 16/16/16 14/14/14 18/18/18
f 7/7/7 21/21/21 20/20/20
f 20/20/20 18/18/18 7/7/7
f 19/19/19 5/5/5 7/7/7
f 7/7/7 18/18/18 19/19/19
f 17/17/17 16/16/16 22/22/22
f 17/17/17 22/22/22 23/23/23
f 23/23/23 13/13/13 17/17/17
f 24/24/24 25/25/25 11/11/11
f 11/11/11 12/12/12 24/24/24
f 26/26/26 8/8/8 11/11/11
f 11/11/11 25/25/25 26/26/26
f 27/27/27 2/2/2 1/1/1
f 1/1/1 28/28/28 27/27/27
f 27/27/27 15/15/15 2/2/2
f 3/3/3 17/17/17 13/13/13
f 13/13/13 4/4/4 3/3/3
f 29/29/29 30/30/30 31/31/31
f 31/31/31 32/32/32 29/29/29
f 33/33/33 34/34/34 35/35/35
f 35/35/35 36/36/36 33/33/33
f 37/37/37 31/31/31 30/30/30
f 30/30/30 38/38/38 37/37/37
f 39/39/39 40/40/40 35/35/35
f 35/35/35 34/34/34 39/39/39
f 31/31/31 34/34/34 33/33/33
f 33/33/33 32/32/32 31/31/31
f 34/34/34 31/31/31 37/37/37
f 37/37/37 39/39/39 34/34/34
f 41/41/41 38/38/38 30/30/30
f 30/30/30 42/42/42 41/41/41
f 30/30/30 29/29/29 43/43/43
f 43/43/43 42/42/42 30/30/30
f 44/44/9 45/45/8 39/39/39
f 39/39/39 37/37/37 44/44/9
f 45/45/8 46/46/44 40/40/40
f 40/40/40 39/39/39 45/45/8
f 47/47/45 48/48/46 38/38/38
f 38/38/38 41/41/41 47/47/45
f 38/38/38 48/48/46 44/44/9
f 44/44/9 37/37/37 38/38/38
f 49/49/47 50/50/48 51/51/49
f 51/51/49 52/52/50 49/49/47
f 53/53/51 54/54/52 49/49/47
f 55/55/53 56/56/54 57/57/55
f 57/57/55 58/58/56 55/55/53
f 59/59/57 53/53/51 49/49/47
f 49/49/47 60/60/58 59/59/57
f 61/61/59 62/62/60 63/63/61
f 63/63/61 64/64/62 61/61/59
f 65/65/63 54/54/52 53/53/51
f 53/53/51 66/66/64 65/65/63
f 67/67/65 68/68/66 69/69/67
f 70/70/68 66/66/64 62/62/60
f 62/62/60 61/61/59 70/70/68
f 71/71/69 67/67/65 69/69/67
f 72/72/70 57/57/55 73/73/71
f 73/73/71 74/74/72 72/72/70
f 75/75/73 76/76/74 77/77/75
f 78/78/76 79/79/77 80/80/78
f 80/80/78 81/81/79 78/78/76
f 79/79/77 78/78/76 82/82/80
f 82/82/80 80/80/78 79/79/77
f 62/62/60 53/53/51 83/83/81
f 83/83/81 63/63/61 62/62/60
f 62/62/60 66/66/64 53/53/51
f 84/84/82 85/85/83 86/86/84
f 87/87/85 70/70/68 78/78/76
f 78/78/76 81/81/79 87/87/85
f 78/78/76 70/70/68 61/61/59
f 88/88/86 89/89/87 90/90/88
f 90/90/88 91/91/89 88/88/86
f 61/61/59 64/64/62 82/82/80
f 82/82/80 78/78/76 61/61/59
f 52/52/50 60/60/58 49/49/47
f 77/77/75 76/76/74 92/92/90
f 93/93/91 94/94/92 95/95/93
f 95/95/93 96/96/94 93/93/91
f 97/97/95 94/94/92 93/93/91
f 93/93/91 98/98/96 97/97/95
f 99/99/97 50/50/48 49/49/47
f 100/100/98 99/99/97 49/49/47
f 54/54/52 100/100/98 49/49/47
f 85/85/83 84/84/82 90/90/88
f 90/90/88 89/89/87 85/85/83
f 21/21/21 7/7/7 6/6/6
f 65/65/63 85/85/83 89/89/87
f 65/65/63 66/66/64 85/85/83
f 66/66/64 86/86/84 85/85/83
f 67/67/65 86/86/84 66/66/64
f 66/66/64 70/70/68 67/67/65
f 98/98/96 93/93/91 56/56/54
f 56/56/54 55/55/53 98/98/96
f 56/56/54 93/93/91 96/96/94
f 96/96/94 101/101/99 56/56/54
f 59/59/57 83/83/81 53/53/51
f 68/68/66 67/67/65 70/70/68
f 70/70/68 87/87/85 68/68/66
f 102/102/100 89/89/87 88/88/86
f 65/65/63 89/89/87 102/102/100
f 86/86/84 67/67/65 71/71/69
f 54/54/52 65/65/63 102/102/100
f 102/102/100 100/100/98 54/54/52
f 57/57/55 56/56/54 101/101/99
f 101/101/99 73/73/71 57/57/55
f 97/97/95 92/92/90 76/76/74
f 76/76/74 94/94/92 97/97/95
f 76/76/74 75/75/73 95/95/93
f 95/95/93 94/94/92 76/76/74
f 12/12/12 13/13/13 23/23/23
f 23/23/23 24/24/24 12/12/12
f 86/86/84 71/71/69 84/84/82
f 50/50/48 103/103/70 104/104/72
f 104/104/72 51/51/49 50/50/48
f 11/11/11 10/10/10 12/12/12
f 28/28/28 1/1/1 105/105/46
f 105/105/46 106/106/101 28/28/28
f 103/103/70 50/50/48 99/99/97
f 99/99/97 107/107/102 103/103/70
f 72/72/70 108/108/103 58/58/56
f 58/58/56 57/57/55 72/72/70
f 9/9/9 105/105/46 4/4/4
f 4/4/4 10/10/10 9/9/9
f 4/4/4 105/105/46 1/1/1
f 109/109/104 110/110/105 111/111/106
f 111/111/106 112/112/107 109/109/104
f 5/5/5 113/113/108 6/6/6
f 114/114/109 115/115/110 116/116/111
f 116/116/111 117/117/112 114/114/109
f 118/118/113 119/119/114 116/116/111
f 119/119/114 112/112/107 116/116/111
f 120/120/115 15/15/15 110/110/105
f 110/110/105 109/109/104 120/120/115
f 109/109/104 121/121/116 16/16/16
f 16/16/16 120/120/115 109/109/104
f 122/122/117 19/19/19 15/15/15
f 15/15/15 120/120/115 122/122/117
f 16/16/16 20/20/20 122/122/117
f 122/122/117 120/120/115 16/16/16
f 20/20/20 21/21/21 113/113/108
f 113/113/108 122/122/117 20/20/20
f 19/19/19 122/122/117 113/113/108
f 113/113/108 5/5/5 19/19/19
f 121/121/116 22/22/22 16/16/16
f 121/121/116 119/119/114 23/23/23
f 23/23/23 22/22/22 121/121/116
f 24/24/24 118/118/113 115/115/110
f 115/115/110 25/25/25 24/24/24
f 26/26/26 25/25/25 115/115/110
f 115/115/110 114/114/109 26/26/26
f 27/27/27 28/28/28 111/111/106
f 111/111/106 110/110/105 27/27/27
f 27/27/27 110/110/105 15/15/15
f 119/119/114 121/121/116 109/109/104
f 109/109/104 112/112/107 119/119/114
f 123/123/118 124/124/119 125/125/120
f 125/125/120 126/126/121 123/123/118
f 127/127/122 36/36/36 35/35/35
f 35/35/35 128/128/123 127/127/122
f 129/129/124 130/130/125 126/126/121
f 126/126/121 125/125/120 129/129/124
f 131/131/126 128/128/123 35/35/35
f 35/35/35 40/40/40 131/131/126
f 125/125/120 124/124/119 127/127/122
f 127/127/122 128/128/123 125/125/120
f 128/128/123 131/131/126 129/129/124
f 129/129/124 125/125/120 128/128/123
f 41/41/41 42/42/42 126/126/121
f 126/126/121 130/130/125 41/41/41
f 126/126/121 42/42/42 43/43/43
f 43/43/43 123/123/118 126/126/121
f 132/132/127 129/129/124 131/131/126
f 131/131/126 133/133/128 132/132/127
f 133/133/128 131/131/126 40/40/40
f 40/40/40 46/46/44 133/133/128
f 47/47/45 41/41/41 130/130/125
f 130/130/125 134/134/129 47/47/45
f 130/130/125 129/129/124 132/132/127
f 132/132/127 134/134/129 130/130/125
f 135/135/130 136/136/131 137/137/132
f 137/137/132 138/138/133 135/135/130
f 139/139/134 135/135/130 140/140/135
f 141/141/136 142/142/137 143/143/138
f 143/143/138 144/144/139 141/141/136
f 135/135/130 139/139/134 145/145/140
f 145/145/140 146/146/141 135/135/130
f 147/147/142 148/148/143 149/149/144
f 149/149/144 150/150/145 147/147/142
f 151/151/146 152/152/147 139/139/134
f 139/139/134 140/140/135 151/151/146
f 153/153/148 154/154/149 155/155/150
f 156/156/151 147/147/142 150/150/145
f 150/150/145 152/152/147 156/156/151
f 157/157/152 154/154/149 153/153/148
f 142/142/137 158/158/153 159/159/154
f 159/159/154 143/143/138 142/142/137
f 159/159/154 160/160/155 161/161/156
f 161/161/156 143/143/138 159/159/154
f 162/162/157 163/163/158 164/164/159
f 165/165/160 166/166/161 167/167/162
f 167/167/162 168/168/163 165/165/160
f 166/166/161 165/165/160 169/169/164
f 169/169/164 167/167/162 166/166/161
f 150/150/145 149/149/144 170/170/165
f 170/170/165 139/139/134 150/150/145
f 150/150/145 139/139/134 152/152/147
f 171/171/166 172/172/167 173/173/168
f 174/174/169 168/168/163 167/167/162
f 167/167/162 156/156/151 174/174/169
f 167/167/162 147/147/142 156/156/151
f 175/175/170 176/176/171 177/177/172
f 177/177/172 178/178/173 175/175/170
f 147/147/142 167/167/162 169/169/164
f 169/169/164 148/148/143 147/147/142
f 136/136/131 135/135/130 146/146/141
f 163/163/158 179/179/174 164/164/159
f 180/180/175 181/181/176 182/182/177
f 182/182/177 183/183/178 180/180/175
f 184/184/179 185/185/180 180/180/175
f 180/180/175 183/183/178 184/184/179
f 186/186/181 187/187/182 140/140/135
f 138/138/133 186/186/181 140/140/135
f 135/135/130 138/138/133 140/140/135
f 173/173/168 178/178/173 177/177/172
f 177/177/172 171/171/166 173/173/168
f 21/21/21 6/6/6 113/113/108
f 151/151/146 178/178/173 173/173/168
f 151/151/146 173/173/168 152/152/147
f 152/152/147 173/173/168 172/172/167
f 153/153/148 156/156/151 152/152/147
f 152/152/147 172/172/167 153/153/148
f 185/185/180 141/141/136 144/144/139
f 144/144/139 180/180/175 185/185/180
f 144/144/139 188/188/183 181/181/176
f 181/181/176 180/180/175 144/144/139
f 145/145/140 139/139/134 170/170/165
f 156/156/151 153/153/148 155/155/150
f 155/155/150 174/174/169 156/156/151
f 189/189/184 175/175/170 178/178/173
f 151/151/146 189/189/184 178/178/173
f 172/172/167 157/157/152 153/153/148
f 189/189/184 151/151/146 140/140/135
f 140/140/135 187/187/182 189/189/184
f 188/188/183 144/144/139 143/143/138
f 143/143/138 161/161/156 188/188/183
f 184/184/179 183/183/178 164/164/159
f 164/164/159 179/179/174 184/184/179
f 164/164/159 183/183/178 182/182/177
f 182/182/177 162/162/157 164/164/159
f 118/118/113 24/24/24 23/23/23
f 23/23/23 119/119/114 118/118/113
f 172/172/167 171/171/166 157/157/152
f 190/190/155 191/191/154 138/138/133
f 138/138/133 137/137/132 190/190/155
f 115/115/110 118/118/113 116/116/111
f 28/28/28 106/106/101 192/192/129
f 192/192/129 111/111/106 28/28/28
f 186/186/181 138/138/133 191/191/154
f 191/191/154 193/193/153 186/186/181
f 112/112/107 192/192/129 117/117/112
f 117/117/112 116/116/111 112/112/107
f 112/112/107 111/111/106 192/192/129
